<?xml version="1.0" encoding="UTF-8" standalone="no"?>
<svg
   xmlns:dc="http://purl.org/dc/elements/1.1/"
   xmlns:cc="http://creativecommons.org/ns#"
   xmlns:rdf="http://www.w3.org/1999/02/22-rdf-syntax-ns#"
   xmlns:svg="http://www.w3.org/2000/svg"
   xmlns="http://www.w3.org/2000/svg"
   xmlns:sodipodi="http://sodipodi.sourceforge.net/DTD/sodipodi-0.dtd"
   xmlns:inkscape="http://www.inkscape.org/namespaces/inkscape"
   width="56.400002"
   height="56.400002"
   viewBox="0 0 56.400003 56.400002"
   version="1.1"
   id="svg4"
   sodipodi:docname="about.svg"
   style="fill:none"
   inkscape:version="0.92.5 (2060ec1f9f, 2020-04-08)">
  <metadata
     id="metadata10">
    <rdf:RDF>
      <cc:Work
         rdf:about="">
        <dc:format>image/svg+xml</dc:format>
        <dc:type
           rdf:resource="http://purl.org/dc/dcmitype/StillImage" />
        <dc:title></dc:title>
      </cc:Work>
    </rdf:RDF>
  </metadata>
  <defs
     id="defs8">
    <filter
       style="color-interpolation-filters:sRGB"
       inkscape:label="Drop Shadow"
       id="filter827">
      <feFlood
         flood-opacity="0.498039"
         flood-color="rgb(0,0,0)"
         result="flood"
         id="feFlood817" />
      <feComposite
         in="flood"
         in2="SourceGraphic"
         operator="in"
         result="composite1"
         id="feComposite819" />
      <feGaussianBlur
         in="composite1"
         stdDeviation="1"
         result="blur"
         id="feGaussianBlur821" />
      <feOffset
         dx="0"
         dy="0"
         result="offset"
         id="feOffset823" />
      <feComposite
         in="SourceGraphic"
         in2="offset"
         operator="over"
         result="composite2"
         id="feComposite825" />
    </filter>
  </defs>
  <sodipodi:namedview
     pagecolor="#ffffff"
     bordercolor="#666666"
     borderopacity="1"
     objecttolerance="10"
     gridtolerance="10"
     guidetolerance="10"
     inkscape:pageopacity="0"
     inkscape:pageshadow="2"
     inkscape:window-width="1920"
     inkscape:window-height="1080"
     id="namedview6"
     showgrid="false"
     inkscape:zoom="4.9166667"
     inkscape:cx="-19.515255"
     inkscape:cy="32.400002"
     inkscape:window-x="0"
     inkscape:window-y="0"
     inkscape:window-maximized="0"
     inkscape:current-layer="svg4"
     fit-margin-top="0"
     fit-margin-left="0"
     fit-margin-right="0"
     fit-margin-bottom="0" />
  <path
     d="m 22.95,44.471499 h 0.5 v -0.5 -13.543 -0.5 h -0.5 -1.875 c -0.75942,0 -1.375,-0.6155 -1.375,-1.375 v -4.4785 c 0,-0.7594 0.61558,-1.375 1.375,-1.375 h 10.5 c 0.7594,0 1.375,0.6156 1.375,1.375 v 19.8965 0.5 h 0.5 1.875 c 0.7594,0 1.375,0.6156 1.375,1.375 v 4.4785 c 0,0.7594 -0.6156,1.375 -1.375,1.375 h -14.25 c -0.75942,0 -1.375,-0.6156 -1.375,-1.375 v -4.4785 c 0,-0.7594 0.61558,-1.375 1.375,-1.375 z m -1,-33.5215 c 0,-3.4518292 2.79817,-6.2499992 6.25,-6.2499992 3.4517,0 6.25,2.79818 6.25,6.2499992 0,3.4518 -2.7982,6.25 -6.25,6.25 -3.45183,0 -6.25,-2.7982 -6.25,-6.25 z"
     id="path2"
     style="fill:#ffffff;fill-opacity:0.87000002;stroke:#4d5858;filter:url(#filter827)"
     inkscape:connector-curvature="0" />
</svg>
