<svg width="18" height="48" viewBox="0 0 18 48" fill="none" xmlns="http://www.w3.org/2000/svg">
<path d="M3.75 40.2715H4.25V39.7715V26.2285V25.7285H3.75H1.875C1.11558 25.7285 0.5 25.113 0.5 24.3535V19.875C0.5 19.1156 1.11558 18.5 1.875 18.5H12.375C13.1344 18.5 13.75 19.1156 13.75 19.875V39.7715V40.2715H14.25H16.125C16.8844 40.2715 17.5 40.8871 17.5 41.6465V46.125C17.5 46.8844 16.8844 47.5 16.125 47.5H1.875C1.11558 47.5 0.5 46.8844 0.5 46.125V41.6465C0.5 40.8871 1.11558 40.2715 1.875 40.2715H3.75ZM2.75 6.75C2.75 3.29817 5.54817 0.5 9 0.5C12.4517 0.5 15.25 3.29818 15.25 6.75C15.25 10.2018 12.4518 13 9 13C5.54817 13 2.75 10.2018 2.75 6.75Z" fill="white" fill-opacity="0.87" stroke="#4D5858"/>
</svg>
