<svg width="25" height="28" viewBox="0 0 25 28" fill="none" xmlns="http://www.w3.org/2000/svg">
<path d="M8.60781 15.7325H6.44066C6.08308 15.7325 5.79051 15.439 5.79051 15.0803V12.9061C5.79051 12.5474 6.08308 12.2539 6.44066 12.2539H8.60781C8.96538 12.2539 9.25795 12.5474 9.25795 12.9061V15.0803C9.25795 15.439 8.96538 15.7325 8.60781 15.7325ZM14.4591 15.0803V12.9061C14.4591 12.5474 14.1665 12.2539 13.809 12.2539H11.6418C11.2842 12.2539 10.9917 12.5474 10.9917 12.9061V15.0803C10.9917 15.439 11.2842 15.7325 11.6418 15.7325H13.809C14.1665 15.7325 14.4591 15.439 14.4591 15.0803ZM19.6603 15.0803V12.9061C19.6603 12.5474 19.3677 12.2539 19.0101 12.2539H16.843C16.4854 12.2539 16.1928 12.5474 16.1928 12.9061V15.0803C16.1928 15.439 16.4854 15.7325 16.843 15.7325H19.0101C19.3677 15.7325 19.6603 15.439 19.6603 15.0803ZM14.4591 20.2982V18.1241C14.4591 17.7654 14.1665 17.4718 13.809 17.4718H11.6418C11.2842 17.4718 10.9917 17.7654 10.9917 18.1241V20.2982C10.9917 20.657 11.2842 20.9505 11.6418 20.9505H13.809C14.1665 20.9505 14.4591 20.657 14.4591 20.2982ZM9.25795 20.2982V18.1241C9.25795 17.7654 8.96538 17.4718 8.60781 17.4718H6.44066C6.08308 17.4718 5.79051 17.7654 5.79051 18.1241V20.2982C5.79051 20.657 6.08308 20.9505 6.44066 20.9505H8.60781C8.96538 20.9505 9.25795 20.657 9.25795 20.2982ZM19.6603 20.2982V18.1241C19.6603 17.7654 19.3677 17.4718 19.0101 17.4718H16.843C16.4854 17.4718 16.1928 17.7654 16.1928 18.1241V20.2982C16.1928 20.657 16.4854 20.9505 16.843 20.9505H19.0101C19.3677 20.9505 19.6603 20.657 19.6603 20.2982ZM24.8614 6.16625V25.2988C24.8614 26.7392 23.6966 27.9078 22.2608 27.9078H3.18993C1.7542 27.9078 0.589355 26.7392 0.589355 25.2988V6.16625C0.589355 4.72587 1.7542 3.55726 3.18993 3.55726H5.79051V0.73086C5.79051 0.372124 6.08308 0.0786133 6.44066 0.0786133H8.60781C8.96538 0.0786133 9.25795 0.372124 9.25795 0.73086V3.55726H16.1928V0.73086C16.1928 0.372124 16.4854 0.0786133 16.843 0.0786133H19.0101C19.3677 0.0786133 19.6603 0.372124 19.6603 0.73086V3.55726H22.2608C23.6966 3.55726 24.8614 4.72587 24.8614 6.16625ZM22.2608 24.9727V8.77523H3.18993V24.9727C3.18993 25.152 3.33622 25.2988 3.51501 25.2988H21.9358C22.1146 25.2988 22.2608 25.152 22.2608 24.9727Z" fill="#18988B"/>
</svg>
