<svg width="25" height="29" viewBox="0 0 25 29" fill="none" xmlns="http://www.w3.org/2000/svg">
<path d="M22.2608 4.28877H19.6603V1.4762C19.6603 1.11776 19.3692 0.827148 19.0101 0.827148H16.843C16.4839 0.827148 16.1928 1.11776 16.1928 1.4762V4.28877H9.25795V1.4762C9.25795 1.11776 8.96685 0.827148 8.60781 0.827148H6.44066C6.08161 0.827148 5.79051 1.11776 5.79051 1.4762V4.28877H3.18993C1.75366 4.28877 0.589355 5.45112 0.589355 6.88498V25.9239C0.589355 27.3578 1.75366 28.5201 3.18993 28.5201H22.2608C23.6971 28.5201 24.8614 27.3578 24.8614 25.9239V6.88498C24.8614 5.45112 23.6971 4.28877 22.2608 4.28877ZM21.9358 25.9239H3.51501C3.42879 25.9239 3.34611 25.8897 3.28515 25.8288C3.22418 25.768 3.18993 25.6854 3.18993 25.5994V9.4812H22.2608V25.5994C22.2608 25.6854 22.2266 25.768 22.1656 25.8288C22.1047 25.8897 22.022 25.9239 21.9358 25.9239V25.9239ZM19.0725 15.0712L11.3624 22.7067C11.1074 22.9591 10.6958 22.9575 10.4429 22.703L6.37456 18.6086C6.12171 18.3541 6.12333 17.9432 6.37824 17.6907L7.60913 16.4718C7.86404 16.2193 8.27569 16.221 8.52854 16.4755L10.918 18.8803L16.9358 12.9209C17.1907 12.6684 17.6023 12.6701 17.8552 12.9245L19.0762 14.1533C19.3291 14.4078 19.3274 14.8187 19.0725 15.0712Z" fill="#FF6B00"/>
</svg>
