<svg width="19" height="25" viewBox="0 0 19 25" fill="none" xmlns="http://www.w3.org/2000/svg">
<path d="M7.69557 16.9891L7.68609 16.9796L6.13116 15.6096L7.68609 14.2396C7.85675 14.0879 7.87572 13.8224 7.72401 13.6517L7.71453 13.6422L6.88966 12.7605C6.72848 12.5898 6.46301 12.5851 6.30182 12.7415L3.56648 15.3062C3.39107 15.4721 3.39107 15.7518 3.56648 15.913L6.30182 18.4777C6.37767 18.5488 6.48197 18.5915 6.58626 18.5915C6.70004 18.5915 6.81381 18.544 6.88966 18.4587L7.71453 17.577C7.87097 17.411 7.86149 17.1456 7.69557 16.9891V16.9891ZM18.125 5.08064L14.1476 1.10324C13.7209 0.676587 13.1426 0.434814 12.5405 0.434814H2.86486C1.60859 0.439555 0.589355 1.45879 0.589355 2.71506V22.4361C0.589355 23.6924 1.60859 24.7116 2.86486 24.7116H16.5179C17.7742 24.7116 18.7934 23.6924 18.7934 22.4361V6.69246C18.7934 6.09039 18.5516 5.5073 18.125 5.08064V5.08064ZM12.7254 2.89995L16.333 6.50757H12.7254V2.89995ZM16.5179 22.4361H2.86486V2.71506H10.4499V7.64532C10.4499 8.27583 10.9571 8.78308 11.5876 8.78308H16.5179V22.4361ZM10.5257 10.5845C10.3029 10.5182 10.0754 10.6461 10.009 10.869L7.41587 19.7861C7.3495 20.0089 7.4775 20.2412 7.70031 20.3028L8.85703 20.6394C9.07984 20.7058 9.31213 20.573 9.37376 20.355L11.9669 11.4331C12.0333 11.2103 11.9053 10.978 11.6824 10.9164L10.5257 10.5845ZM11.6872 14.2301L11.6967 14.2396L13.2516 15.6096L11.6967 16.9796C11.526 17.1313 11.507 17.3968 11.6587 17.5675L11.6682 17.577L12.4931 18.4587C12.6495 18.6246 12.915 18.6341 13.0809 18.4777L15.8163 15.913C15.9917 15.7471 15.9917 15.4674 15.8163 15.3062L13.0809 12.7415C12.915 12.5851 12.6495 12.5898 12.4931 12.7605L11.6682 13.6422C11.5118 13.8082 11.5213 14.0736 11.6872 14.2301V14.2301Z" fill="#BADF93"/>
</svg>
