<?xml version="1.0" encoding="UTF-8" standalone="no"?>
<svg
   xmlns:dc="http://purl.org/dc/elements/1.1/"
   xmlns:cc="http://creativecommons.org/ns#"
   xmlns:rdf="http://www.w3.org/1999/02/22-rdf-syntax-ns#"
   xmlns:svg="http://www.w3.org/2000/svg"
   xmlns="http://www.w3.org/2000/svg"
   xmlns:sodipodi="http://sodipodi.sourceforge.net/DTD/sodipodi-0.dtd"
   xmlns:inkscape="http://www.inkscape.org/namespaces/inkscape"
   width="56.557079"
   height="56.557079"
   viewBox="0 0 56.557079 56.557079"
   version="1.1"
   id="svg4"
   sodipodi:docname="home.svg"
   style="fill:none"
   inkscape:version="0.92.5 (2060ec1f9f, 2020-04-08)">
  <metadata
     id="metadata10">
    <rdf:RDF>
      <cc:Work
         rdf:about="">
        <dc:format>image/svg+xml</dc:format>
        <dc:type
           rdf:resource="http://purl.org/dc/dcmitype/StillImage" />
        <dc:title></dc:title>
      </cc:Work>
    </rdf:RDF>
  </metadata>
  <defs
     id="defs8">
    <filter
       style="color-interpolation-filters:sRGB"
       inkscape:label="Drop Shadow"
       id="filter827">
      <feFlood
         flood-opacity="0.498039"
         flood-color="rgb(0,0,0)"
         result="flood"
         id="feFlood817" />
      <feComposite
         in="flood"
         in2="SourceGraphic"
         operator="in"
         result="composite1"
         id="feComposite819" />
      <feGaussianBlur
         in="composite1"
         stdDeviation="1"
         result="blur"
         id="feGaussianBlur821" />
      <feOffset
         dx="0"
         dy="0"
         result="offset"
         id="feOffset823" />
      <feComposite
         in="SourceGraphic"
         in2="offset"
         operator="over"
         result="composite2"
         id="feComposite825" />
    </filter>
  </defs>
  <sodipodi:namedview
     pagecolor="#ffffff"
     bordercolor="#666666"
     borderopacity="1"
     objecttolerance="10"
     gridtolerance="10"
     guidetolerance="10"
     inkscape:pageopacity="0"
     inkscape:pageshadow="2"
     inkscape:window-width="1920"
     inkscape:window-height="1080"
     id="namedview6"
     showgrid="false"
     fit-margin-top="0"
     fit-margin-left="0"
     fit-margin-right="0"
     fit-margin-bottom="0"
     inkscape:zoom="4.9166667"
     inkscape:cx="-11.651317"
     inkscape:cy="22.45893"
     inkscape:window-x="0"
     inkscape:window-y="0"
     inkscape:window-maximized="0"
     inkscape:current-layer="svg4" />
  <path
     d="m 12.71372,32.18799 15.17677,-12.4999 c 6e-4,-5e-4 0.0011,-9e-4 0.0017,-0.0014 0.0914,-0.073 0.2049,-0.1128 0.322,-0.1128 0.117,0 0.2306,0.0398 0.322,0.1129 6e-4,4e-4 0.0011,9e-4 0.0016,0.0013 l 15.1735,12.4908 v 13.4296 c 0,0.221 -0.0878,0.4329 -0.2441,0.5891 -0.1562,0.1563 -0.3682,0.2441 -0.5892,0.2441 l -9.3329,-0.0258 h -0.0013 c -0.1097,0 -0.2183,-0.0217 -0.3195,-0.0637 -0.1013,-0.042 -0.1932,-0.1037 -0.2707,-0.1813 -0.0774,-0.0777 -0.1387,-0.1698 -0.1804,-0.2712 -0.0417,-0.1014 -0.063,-0.21 -0.0627,-0.3197 v -0.0015 -7.9694 c 0,-0.4862 -0.1931,-0.9525 -0.5369,-1.2963 -0.3438,-0.3438 -0.8101,-0.537 -1.2963,-0.537 h -5.3329 c -0.4862,0 -0.9525,0.1932 -1.2963,0.537 -0.3438,0.3438 -0.537,0.8101 -0.537,1.2963 v 7.9752 c 0,0.2203 -0.0872,0.4316 -0.2425,0.5877 -0.1553,0.1561 -0.3661,0.2444 -0.5863,0.2455 0,0 -10e-5,0 -2e-4,0 l -9.33514,0.0242 c -0.22098,0 -0.43292,-0.0878 -0.58918,-0.2441 -0.15626,-0.1562 -0.24405,-0.3681 -0.24405,-0.5891 z m 31.66417,-10.0311 v 0.2359 l 0.182,0.15 6.9661,5.742 0.318,-0.3858 -0.3154,0.3879 c 0.0511,0.0416 0.0935,0.0928 0.1247,0.1508 0.0313,0.058 0.0507,0.1216 0.0573,0.1872 0.0066,0.0655 10e-5,0.1317 -0.0189,0.1948 -0.0191,0.063 -0.0505,0.1216 -0.0923,0.1725 l -2.124,2.5821 c 0,10e-5 -10e-5,10e-5 -10e-5,2e-4 -0.0418,0.0505 -0.0932,0.0924 -0.1511,0.1231 -0.0581,0.0307 -0.1216,0.0497 -0.187,0.0559 -0.0654,0.0062 -0.1313,-5e-4 -0.1941,-0.0199 -0.0628,-0.0193 -0.1211,-0.0508 -0.1717,-0.0926 l -9e-4,-8e-4 -19.601,-16.1437 v -10e-5 l -0.0041,-0.0033 c -0.2695,-0.2172 -0.6051,-0.3356 -0.9512,-0.3356 -0.3461,0 -0.6818,0.1184 -0.9513,0.3356 v 0 l -0.0041,0.0034 -19.6001201,16.1437 -5.3e-4,5e-4 c -0.05068,0.0418 -0.10913,0.0733 -0.17199,0.0925 -0.06285,0.0193 -0.12889,0.0259 -0.19433,0.0196 -0.06543,-0.0063 -0.12898,-0.0254 -0.18701,-0.0563 -0.05802,-0.0309 -0.10938,-0.073 -0.15114,-0.1237 l -3e-5,-10e-5 -2.124839,-2.5831 -9.37e-4,-0.0012 c -0.041872,-0.0506 -0.073363,-0.1089 -0.092674,-0.1717 -0.019311,-0.0627 -0.026065,-0.1287 -0.019874,-0.1941 0.00619,-0.0654 0.025203,-0.1289 0.055951,-0.1869 0.030684,-0.0579 0.072456,-0.1093 0.122937,-0.151 1.06e-4,-10e-5 2.11e-4,-2e-4 3.16e-4,-3e-4 L 25.98619,10.9139 c 10e-5,-4e-5 10e-5,-8e-5 2e-4,-1.2e-4 0.6264,-0.51541 1.4124,-0.79721 2.2236,-0.79721 0.8113,0 1.5973,0.28184 2.2238,0.79733 v 3e-5 l 7.4603,6.13786 0.8176,0.6727 v -1.0588 -6.05038 c 0,-0.13259 0.0527,-0.25974 0.1465,-0.3535 0.0937,-0.09375 0.2209,-0.14642 0.3535,-0.14642 h 4.6663 c 0.1325,0 0.2597,0.05267 0.3535,0.14642 0.0937,0.09376 0.1464,0.22091 0.1464,0.3535 z"
     id="path2"
     style="fill:#ffffff;fill-opacity:0.87000002;stroke:#4d5858;filter:url(#filter827)"
     inkscape:connector-curvature="0" />
</svg>
