<svg width="48" height="48" viewBox="0 0 48 48" fill="none" xmlns="http://www.w3.org/2000/svg">
<path d="M8.50063 28.5726L23.6774 16.0727C23.678 16.0722 23.6785 16.0718 23.6791 16.0713C23.7705 15.9983 23.884 15.9585 24.0011 15.9585C24.1181 15.9585 24.2317 15.9983 24.3231 16.0714C24.3237 16.0718 24.3242 16.0723 24.3247 16.0727L39.4982 28.5635V41.9931C39.4982 42.2141 39.4104 42.426 39.2541 42.5822C39.0979 42.7385 38.8859 42.8263 38.6649 42.8263L29.332 42.8005H29.3307C29.221 42.8005 29.1124 42.7788 29.0112 42.7368C28.9099 42.6948 28.818 42.6331 28.7405 42.5555C28.6631 42.4778 28.6018 42.3857 28.5601 42.2843C28.5184 42.1829 28.4971 42.0743 28.4974 41.9646V41.9631V33.9937C28.4974 33.5075 28.3043 33.0412 27.9605 32.6974C27.6167 32.3536 27.1504 32.1604 26.6642 32.1604H21.3313C20.8451 32.1604 20.3788 32.3536 20.035 32.6974C19.6912 33.0412 19.498 33.5075 19.498 33.9937V41.9689C19.498 42.1892 19.4108 42.4005 19.2555 42.5566C19.1002 42.7127 18.8894 42.801 18.6692 42.8021C18.6692 42.8021 18.6691 42.8021 18.669 42.8021L9.33386 42.8263C9.11288 42.8263 8.90094 42.7385 8.74468 42.5822C8.58842 42.426 8.50063 42.2141 8.50063 41.9931V28.5726ZM40.1648 18.5415V18.7774L40.3468 18.9274L47.3129 24.6694L47.6309 24.2836L47.3155 24.6715C47.3666 24.7131 47.409 24.7643 47.4402 24.8223C47.4715 24.8803 47.4909 24.9439 47.4975 25.0095C47.5041 25.075 47.4976 25.1412 47.4786 25.2043C47.4595 25.2673 47.4281 25.3259 47.3863 25.3768L45.2623 27.9589C45.2623 27.959 45.2622 27.959 45.2622 27.9591C45.2204 28.0096 45.169 28.0515 45.1111 28.0822C45.053 28.1129 44.9895 28.1319 44.9241 28.1381C44.8587 28.1443 44.7928 28.1376 44.73 28.1182C44.6672 28.0989 44.6089 28.0674 44.5583 28.0256L44.5574 28.0248L24.9564 11.8811L24.9564 11.881L24.9523 11.8777C24.6828 11.6605 24.3472 11.5421 24.0011 11.5421C23.655 11.5421 23.3193 11.6605 23.0498 11.8777L23.0498 11.8777L23.0457 11.8811L3.44558 28.0248L3.44505 28.0253C3.39437 28.0671 3.33592 28.0986 3.27306 28.1178C3.21021 28.1371 3.14417 28.1437 3.07873 28.1374C3.0133 28.1311 2.94975 28.112 2.89172 28.0811C2.8337 28.0502 2.78234 28.0081 2.74058 27.9574L2.74055 27.9573L0.615711 25.3742L0.614774 25.373C0.572902 25.3224 0.541411 25.2641 0.5221 25.2013C0.502789 25.1386 0.496035 25.0726 0.502226 25.0072C0.508416 24.9418 0.527429 24.8783 0.558177 24.8203C0.588861 24.7624 0.630633 24.711 0.681114 24.6693C0.68122 24.6692 0.681325 24.6691 0.68143 24.669L21.7731 7.29851C21.7732 7.29847 21.7732 7.29843 21.7733 7.29839C22.3997 6.78298 23.1857 6.50118 23.9969 6.50118C24.8082 6.50118 25.5942 6.78302 26.2207 7.29851L26.2207 7.29854L33.681 13.4364L34.4986 14.1091V13.0503V6.99992C34.4986 6.86733 34.5513 6.74018 34.6451 6.64642C34.7388 6.55267 34.866 6.5 34.9986 6.5H39.6649C39.7974 6.5 39.9246 6.55267 40.0184 6.64642C40.1121 6.74018 40.1648 6.86733 40.1648 6.99992V18.5415Z" fill="white" fill-opacity="0.87" stroke="#4D5858"/>
</svg>
