<svg width="25" height="25" viewBox="0 0 25 25" fill="none" xmlns="http://www.w3.org/2000/svg">
<path d="M12.3775 5.84866C8.9704 5.84866 6.22218 8.59688 6.22218 12.004C6.22218 15.4112 8.9704 18.1594 12.3775 18.1594C15.7847 18.1594 18.5329 15.4112 18.5329 12.004C18.5329 8.59688 15.7847 5.84866 12.3775 5.84866ZM12.3775 16.0058C10.1758 16.0058 8.37575 14.2112 8.37575 12.004C8.37575 9.79688 10.1704 8.00223 12.3775 8.00223C14.5847 8.00223 16.3793 9.79688 16.3793 12.004C16.3793 14.2112 14.5793 16.0058 12.3775 16.0058ZM20.2204 5.59688C20.2204 6.39509 19.5775 7.03259 18.7847 7.03259C17.9865 7.03259 17.349 6.38973 17.349 5.59688C17.349 4.80402 17.9918 4.16116 18.7847 4.16116C19.5775 4.16116 20.2204 4.80402 20.2204 5.59688ZM24.2972 7.05402C24.2061 5.1308 23.7668 3.42723 22.3579 2.02366C20.9543 0.620089 19.2508 0.180804 17.3275 0.084375C15.3454 -0.028125 9.40433 -0.028125 7.42218 0.084375C5.50432 0.175446 3.80075 0.614732 2.39182 2.0183C0.982896 3.42188 0.548968 5.12545 0.452539 7.04866C0.340039 9.0308 0.340039 14.9719 0.452539 16.954C0.54361 18.8772 0.982896 20.5808 2.39182 21.9844C3.80075 23.3879 5.49897 23.8272 7.42218 23.9237C9.40433 24.0362 15.3454 24.0362 17.3275 23.9237C19.2508 23.8326 20.9543 23.3933 22.3579 21.9844C23.7615 20.5808 24.2008 18.8772 24.2972 16.954C24.4097 14.9719 24.4097 9.03616 24.2972 7.05402ZM21.7365 19.0808C21.3186 20.1308 20.5097 20.9397 19.4543 21.3629C17.874 21.9897 14.124 21.8451 12.3775 21.8451C10.6311 21.8451 6.87575 21.9844 5.30075 21.3629C4.25075 20.9451 3.44182 20.1362 3.01861 19.0808C2.39182 17.5004 2.53647 13.7504 2.53647 12.004C2.53647 10.2576 2.39718 6.50223 3.01861 4.92723C3.43647 3.87723 4.2454 3.0683 5.30075 2.64509C6.88111 2.0183 10.6311 2.16295 12.3775 2.16295C14.124 2.16295 17.8793 2.02366 19.4543 2.64509C20.5043 3.06295 21.3133 3.87187 21.7365 4.92723C22.3633 6.50759 22.2186 10.2576 22.2186 12.004C22.2186 13.7504 22.3633 17.5058 21.7365 19.0808Z" fill="#FF6B00"/>
</svg>
