<svg width="40" height="31" viewBox="0 0 40 31" fill="none" xmlns="http://www.w3.org/2000/svg">
<path d="M12.5 10.5H13V10V2.5C13 1.27137 14.4887 0.664568 15.3496 1.52543L28.4727 14.6485C28.473 14.6489 28.4733 14.6492 28.4737 14.6495C29.0062 15.1888 29.0062 16.0612 28.4737 16.6005C28.4733 16.6008 28.473 16.6011 28.4727 16.6015L15.3496 29.7246C14.4887 30.5854 13 29.9786 13 28.75V21.25V20.75H12.5H1.875C1.11208 20.75 0.5 20.1379 0.5 19.375V11.875C0.5 11.1121 1.11208 10.5 1.875 10.5H12.5ZM32.5 29.5H25.9375C25.698 29.5 25.5 29.302 25.5 29.0625V25.9375C25.5 25.698 25.698 25.5 25.9375 25.5H32.5C34.159 25.5 35.5 24.159 35.5 22.5V7.5C35.5 5.84104 34.159 4.5 32.5 4.5H25.9375C25.698 4.5 25.5 4.30198 25.5 4.0625V0.9375C25.5 0.698017 25.698 0.5 25.9375 0.5H32.5C36.3645 0.5 39.5 3.63552 39.5 7.5V22.5C39.5 26.3645 36.3645 29.5 32.5 29.5Z" fill="white" fill-opacity="0.87" stroke="#4D5858"/>
</svg>
