        <svg
          width="48"
          height="37"
          fill="none"
          xmlns="http://www.w3.org/2000/svg"
        >
          <path
            d="M44 4.5V4H4V8.563l.184.15c2.107 1.716 5.462 4.38 12.625 9.99.245.192.542.44.876.718.682.57 1.515 1.264 2.358 1.868.639.458 1.31.885 1.972 1.197.654.309 1.335.522 1.985.514.65.008 1.33-.205 1.985-.514.662-.312 1.333-.74 1.971-1.197.844-.604 1.677-1.299 2.359-1.867.333-.279.631-.527.876-.72 7.164-5.61 10.519-8.274 12.625-9.989l.184-.15V4.5zm-40 27v.5h40V13.062l-.812.647c-2.146 1.71-5.192 4.11-9.835 7.746h-.001a50.45 50.45 0 00-1.031.844c-.886.737-1.904 1.584-3.055 2.34-1.618 1.06-3.405 1.871-5.263 1.86h-.006c-1.867.011-3.67-.812-5.294-1.88-1.154-.759-2.169-1.605-3.041-2.332a47.97 47.97 0 00-1.015-.832h0a1597.942 1597.942 0 01-9.835-7.746L4 13.062V31.5zm.5-31h39a4 4 0 014 4v27a4 4 0 01-4 4h-39a4 4 0 01-4-4v-27a4 4 0 014-4z"
            fill="#fff"
            fillOpacity=".87"
            stroke="#4D5858"
          />
        </svg>
