<?xml version="1.0" encoding="UTF-8" standalone="no"?>
<svg
   xmlns:dc="http://purl.org/dc/elements/1.1/"
   xmlns:cc="http://creativecommons.org/ns#"
   xmlns:rdf="http://www.w3.org/1999/02/22-rdf-syntax-ns#"
   xmlns:svg="http://www.w3.org/2000/svg"
   xmlns="http://www.w3.org/2000/svg"
   xmlns:sodipodi="http://sodipodi.sourceforge.net/DTD/sodipodi-0.dtd"
   xmlns:inkscape="http://www.inkscape.org/namespaces/inkscape"
   width="56.400002"
   height="56.400002"
   version="1.1"
   id="svg4"
   sodipodi:docname="mail.svg"
   style="fill:none"
   inkscape:version="0.92.5 (2060ec1f9f, 2020-04-08)">
  <metadata
     id="metadata10">
    <rdf:RDF>
      <cc:Work
         rdf:about="">
        <dc:format>image/svg+xml</dc:format>
        <dc:type
           rdf:resource="http://purl.org/dc/dcmitype/StillImage" />
        <dc:title></dc:title>
      </cc:Work>
    </rdf:RDF>
  </metadata>
  <defs
     id="defs8">
    <filter
       style="color-interpolation-filters:sRGB"
       inkscape:label="Drop Shadow"
       id="filter827">
      <feFlood
         flood-opacity="0.498039"
         flood-color="rgb(0,0,0)"
         result="flood"
         id="feFlood817" />
      <feComposite
         in="flood"
         in2="SourceGraphic"
         operator="in"
         result="composite1"
         id="feComposite819" />
      <feGaussianBlur
         in="composite1"
         stdDeviation="1"
         result="blur"
         id="feGaussianBlur821" />
      <feOffset
         dx="0"
         dy="0"
         result="offset"
         id="feOffset823" />
      <feComposite
         in="SourceGraphic"
         in2="offset"
         operator="over"
         result="composite2"
         id="feComposite825" />
    </filter>
  </defs>
  <sodipodi:namedview
     pagecolor="#ffffff"
     bordercolor="#666666"
     borderopacity="1"
     objecttolerance="10"
     gridtolerance="10"
     guidetolerance="10"
     inkscape:pageopacity="0"
     inkscape:pageshadow="2"
     inkscape:window-width="1920"
     inkscape:window-height="1080"
     id="namedview6"
     showgrid="false"
     fit-margin-top="0"
     fit-margin-left="0"
     fit-margin-right="0"
     fit-margin-bottom="0"
     inkscape:zoom="6.3783784"
     inkscape:cx="10.640678"
     inkscape:cy="20.5"
     inkscape:window-x="0"
     inkscape:window-y="0"
     inkscape:window-maximized="0"
     inkscape:current-layer="svg4" />
  <path
     d="m 48.2,14.700001 v -0.5 H 8.1999998 v 4.563 l 0.184,0.15 c 2.1070002,1.716 5.4620002,4.38 12.6250002,9.99 0.245,0.192 0.542,0.44 0.876,0.718 0.682,0.57 1.515,1.264 2.358,1.868 0.639,0.458 1.31,0.885 1.972,1.197 0.654,0.309 1.335,0.522 1.985,0.514 0.65,0.008 1.33,-0.205 1.985,-0.514 0.662,-0.312 1.333,-0.74 1.971,-1.197 0.844,-0.604 1.677,-1.299 2.359,-1.867 0.333,-0.279 0.631,-0.527 0.876,-0.72 7.164,-5.61 10.519,-8.274 12.625,-9.989 l 0.184,-0.15 z m -40.0000002,27 v 0.5 H 48.2 v -18.938 l -0.812,0.647 c -2.146,1.71 -5.192,4.11 -9.835,7.746 h -10e-4 a 50.45,50.45 0 0 0 -1.031,0.844 c -0.886,0.737 -1.904,1.584 -3.055,2.34 -1.618,1.06 -3.405,1.871 -5.263,1.86 h -0.006 c -1.867,0.011 -3.67,-0.812 -5.294,-1.88 -1.154,-0.759 -2.169,-1.605 -3.041,-2.332 a 47.97,47.97 0 0 0 -1.015,-0.832 v 0 a 1597.942,1597.942 0 0 1 -9.8350002,-7.746 l -0.812,-0.647 z m 0.5,-31 H 47.7 a 4,4 0 0 1 4,4 v 27 a 4,4 0 0 1 -4,4 H 8.6999998 a 4,4 0 0 1 -4,-4 v -27 a 4,4 0 0 1 4,-4 z"
     fillOpacity=".87"
     id="path2"
     style="fill:#ffffff;stroke:#4d5858;filter:url(#filter827)"
     inkscape:connector-curvature="0" />
</svg>
