<svg width="25" height="19" viewBox="0 0 25 19" fill="none" xmlns="http://www.w3.org/2000/svg">
<path d="M22.3818 0.00390625H2.88184C1.63918 0.00390625 0.631836 1.01125 0.631836 2.25391V15.7539C0.631836 16.9966 1.63918 18.0039 2.88184 18.0039H22.3818C23.6245 18.0039 24.6318 16.9966 24.6318 15.7539V2.25391C24.6318 1.01125 23.6245 0.00390625 22.3818 0.00390625ZM22.3818 2.25391V4.16664C21.3308 5.02253 19.6552 6.35341 16.0731 9.15836C15.2836 9.77931 13.7199 11.2711 12.6318 11.2537C11.544 11.2713 9.9797 9.77908 9.1906 9.15836C5.60902 6.35383 3.93301 5.02267 2.88184 4.16664V2.25391H22.3818ZM2.88184 15.7539V7.05381C3.95593 7.90933 5.47913 9.10984 7.80081 10.9278C8.82535 11.7343 10.6196 13.5147 12.6318 13.5039C14.6342 13.5147 16.4057 11.7602 17.4624 10.9282C19.7841 9.11027 21.3077 7.90942 22.3818 7.05386V15.7539H2.88184Z" fill="#FF6B00"/>
</svg>
