<svg width="48" height="36" viewBox="0 0 48 36" fill="none" xmlns="http://www.w3.org/2000/svg">
<path d="M44 4.5V4H43.5H4.5H4V4.5V8.32547V8.56311L4.18427 8.71317C6.29071 10.4286 9.64609 13.0935 16.8088 18.7022C17.0538 18.8949 17.3513 19.1431 17.685 19.4214C18.367 19.9901 19.1999 20.6848 20.0434 21.2894C20.6817 21.7469 21.3535 22.1743 22.0154 22.4865C22.6692 22.7948 23.3499 23.0083 24 22.9997C24.6502 23.0082 25.3309 22.7947 25.9847 22.4864C26.6466 22.1742 27.3182 21.7469 27.9565 21.2894C28.7998 20.685 29.6326 19.9905 30.3146 19.4217C30.6485 19.1433 30.9462 18.8949 31.1913 18.7021C38.3551 13.0926 41.7096 10.4283 43.8157 8.71318L44 8.56312V8.32547V4.5ZM4 31.5V32H4.5H43.5H44V31.5V14.0999V13.0624L43.1885 13.7088C41.0418 15.4186 37.9959 17.8193 33.353 21.455L33.3519 21.4558C33.0308 21.7085 32.6872 21.9944 32.3209 22.2992C31.4353 23.036 30.4173 23.8829 29.2656 24.6382C27.6484 25.6989 25.8611 26.51 24.0027 26.4999L23.9973 26.4999C22.1298 26.51 20.3265 25.6867 18.7029 24.6191C17.5487 23.8602 16.534 23.0139 15.6618 22.2865C15.2989 21.9838 14.9606 21.7017 14.6472 21.455L14.6462 21.4542C10.0032 17.8185 6.95806 15.4184 4.81151 13.7087L4 13.0623V14.0998V31.5ZM4.5 0.5H43.5C45.7092 0.5 47.5 2.29083 47.5 4.5V31.5C47.5 33.7092 45.7092 35.5 43.5 35.5H4.5C2.29083 35.5 0.5 33.7092 0.5 31.5V4.5C0.5 2.29083 2.29083 0.5 4.5 0.5Z" fill="white" fill-opacity="0.87" stroke="#4D5858"/>
</svg>
