<svg width="37" height="37" viewBox="0 0 37 37" fill="none" xmlns="http://www.w3.org/2000/svg">
<path fill-rule="evenodd" clip-rule="evenodd" d="M26 23H24.42L23.86 22.46C25.82 20.18 27 17.22 27 14C27 6.82 21.18 1 14 1C6.82 1 1 6.82 1 14C1 21.18 6.82 27 14 27C17.22 27 20.18 25.82 22.46 23.86L23 24.42V26L33 35.98L35.98 33L26 23ZM14 23C9.02 23 5 18.98 5 14C5 9.02 9.02 5 14 5C18.98 5 23 9.02 23 14C23 18.98 18.98 23 14 23Z" fill="white" fill-opacity="0.87"/>
<path d="M26 23L26.3539 22.6468L26.2074 22.5H26V23ZM24.42 23L24.0729 23.3599L24.2182 23.5H24.42V23ZM23.86 22.46L23.4808 22.1341L23.173 22.4921L23.5129 22.8199L23.86 22.46ZM22.46 23.86L22.8199 23.5129L22.4921 23.173L22.1341 23.4808L22.46 23.86ZM23 24.42H23.5V24.2182L23.3599 24.0729L23 24.42ZM23 26H22.5V26.2074L22.6468 26.3539L23 26ZM33 35.98L32.6468 36.3339L33.0004 36.6868L33.3536 36.3336L33 35.98ZM35.98 33L36.3336 33.3536L36.6868 33.0004L36.3339 32.6468L35.98 33ZM26 22.5H24.42V23.5H26V22.5ZM24.7671 22.6401L24.2071 22.1001L23.5129 22.8199L24.0729 23.3599L24.7671 22.6401ZM24.2392 22.7859C26.274 20.4188 27.5 17.3443 27.5 14H26.5C26.5 17.0957 25.366 19.9412 23.4808 22.1341L24.2392 22.7859ZM27.5 14C27.5 6.54386 21.4561 0.5 14 0.5V1.5C20.9039 1.5 26.5 7.09614 26.5 14H27.5ZM14 0.5C6.54386 0.5 0.5 6.54386 0.5 14H1.5C1.5 7.09614 7.09614 1.5 14 1.5V0.5ZM0.5 14C0.5 21.4561 6.54386 27.5 14 27.5V26.5C7.09614 26.5 1.5 20.9039 1.5 14H0.5ZM14 27.5C17.3443 27.5 20.4188 26.274 22.7859 24.2392L22.1341 23.4808C19.9412 25.366 17.0957 26.5 14 26.5V27.5ZM22.1001 24.2071L22.6401 24.7671L23.3599 24.0729L22.8199 23.5129L22.1001 24.2071ZM22.5 24.42V26H23.5V24.42H22.5ZM22.6468 26.3539L32.6468 36.3339L33.3532 35.6261L23.3532 25.6461L22.6468 26.3539ZM33.3536 36.3336L36.3336 33.3536L35.6264 32.6464L32.6464 35.6264L33.3536 36.3336ZM36.3339 32.6468L26.3539 22.6468L25.6461 23.3532L35.6261 33.3532L36.3339 32.6468ZM14 22.5C9.29614 22.5 5.5 18.7039 5.5 14H4.5C4.5 19.2561 8.74386 23.5 14 23.5V22.5ZM5.5 14C5.5 9.29614 9.29614 5.5 14 5.5V4.5C8.74386 4.5 4.5 8.74386 4.5 14H5.5ZM14 5.5C18.7039 5.5 22.5 9.29614 22.5 14H23.5C23.5 8.74386 19.2561 4.5 14 4.5V5.5ZM22.5 14C22.5 18.7039 18.7039 22.5 14 22.5V23.5C19.2561 23.5 23.5 19.2561 23.5 14H22.5Z" fill="#4D5858"/>
</svg>
