<svg width="19" height="21" viewBox="0 0 19 21" fill="none" xmlns="http://www.w3.org/2000/svg">
<path fillRule="evenodd" clip-rule="evenodd" d="M15.8771 14.4039C15.1085 14.4039 14.4207 14.7073 13.8949 15.1826L6.68403 10.9856C6.73459 10.753 6.77505 10.5204 6.77505 10.2777C6.77505 10.0349 6.73459 9.80234 6.68403 9.56973L13.8139 5.41314C14.3601 5.91881 15.0781 6.23232 15.8771 6.23232C17.5559 6.23232 18.9111 4.87713 18.9111 3.19831C18.9111 1.5195 17.5559 0.164307 15.8771 0.164307C14.1983 0.164307 12.8431 1.5195 12.8431 3.19831C12.8431 3.44104 12.8835 3.67364 12.9341 3.90625L5.80416 8.06284C5.25804 7.55717 4.53999 7.24366 3.74104 7.24366C2.06222 7.24366 0.707031 8.59885 0.707031 10.2777C0.707031 11.9565 2.06222 13.3117 3.74104 13.3117C4.53999 13.3117 5.25804 12.9982 5.80416 12.4925L13.0049 16.6997C12.9543 16.912 12.924 17.1345 12.924 17.357C12.924 18.9853 14.2488 20.3101 15.8771 20.3101C17.5053 20.3101 18.8302 18.9853 18.8302 17.357C18.8302 15.7288 17.5053 14.4039 15.8771 14.4039Z" fill="#C2A6E1"/>
</svg>
