<svg width="25" height="20" viewBox="0 0 25 20" fill="none" xmlns="http://www.w3.org/2000/svg">
<path d="M21.9148 5.11566C21.93 5.32884 21.93 5.54208 21.93 5.75527C21.93 12.2578 16.9808 19.7502 7.93513 19.7502C5.14832 19.7502 2.55951 18.943 0.381836 17.5421C0.777789 17.5877 1.15846 17.603 1.56965 17.603C3.8691 17.603 5.98588 16.8263 7.67624 15.5015C5.5138 15.4558 3.70162 14.0395 3.07724 12.0903C3.38184 12.1359 3.68638 12.1664 4.00621 12.1664C4.44782 12.1664 4.88948 12.1055 5.30062 11.9989C3.04682 11.542 1.35641 9.56236 1.35641 7.1715V7.11061C2.01121 7.47609 2.7727 7.70452 3.57974 7.73494C2.25487 6.85167 1.38688 5.34408 1.38688 3.63848C1.38688 2.7248 1.63049 1.88723 2.05691 1.15627C4.47824 4.14103 8.11785 6.09023 12.199 6.30347C12.1229 5.93798 12.0772 5.55731 12.0772 5.17659C12.0772 2.46591 14.2701 0.257812 16.996 0.257812C18.4122 0.257812 19.6914 0.851719 20.5899 1.81111C21.7015 1.59792 22.7675 1.18673 23.7117 0.623297C23.3462 1.76545 22.5696 2.72484 21.5493 3.33394C22.5391 3.22739 23.4985 2.95322 24.3817 2.57255C23.7118 3.54713 22.8742 4.41511 21.9148 5.11566Z" fill="#FF6B00"/>
</svg>
