<?xml version="1.0" encoding="UTF-8" standalone="no"?>
<svg
   xmlns:dc="http://purl.org/dc/elements/1.1/"
   xmlns:cc="http://creativecommons.org/ns#"
   xmlns:rdf="http://www.w3.org/1999/02/22-rdf-syntax-ns#"
   xmlns:svg="http://www.w3.org/2000/svg"
   xmlns="http://www.w3.org/2000/svg"
   xmlns:sodipodi="http://sodipodi.sourceforge.net/DTD/sodipodi-0.dtd"
   xmlns:inkscape="http://www.inkscape.org/namespaces/inkscape"
   width="56.400002"
   height="56.400002"
   viewBox="0 0 56.400002 56.400002"
   version="1.1"
   id="svg4"
   sodipodi:docname="website.svg"
   style="fill:none"
   inkscape:version="0.92.5 (2060ec1f9f, 2020-04-08)">
  <metadata
     id="metadata10">
    <rdf:RDF>
      <cc:Work
         rdf:about="">
        <dc:format>image/svg+xml</dc:format>
        <dc:type
           rdf:resource="http://purl.org/dc/dcmitype/StillImage" />
        <dc:title></dc:title>
      </cc:Work>
    </rdf:RDF>
  </metadata>
  <defs
     id="defs8">
    <filter
       style="color-interpolation-filters:sRGB"
       inkscape:label="Drop Shadow"
       id="filter4542">
      <feFlood
         flood-opacity="0.498039"
         flood-color="rgb(0,0,0)"
         result="flood"
         id="feFlood4532" />
      <feComposite
         in="flood"
         in2="SourceGraphic"
         operator="in"
         result="composite1"
         id="feComposite4534" />
      <feGaussianBlur
         in="composite1"
         stdDeviation="1"
         result="blur"
         id="feGaussianBlur4536" />
      <feOffset
         dx="0"
         dy="0"
         result="offset"
         id="feOffset4538" />
      <feComposite
         in="SourceGraphic"
         in2="offset"
         operator="over"
         result="composite2"
         id="feComposite4540" />
    </filter>
  </defs>
  <sodipodi:namedview
     pagecolor="#ffffff"
     bordercolor="#666666"
     borderopacity="1"
     objecttolerance="10"
     gridtolerance="10"
     guidetolerance="10"
     inkscape:pageopacity="0"
     inkscape:pageshadow="2"
     inkscape:window-width="1920"
     inkscape:window-height="1080"
     id="namedview6"
     showgrid="false"
     inkscape:zoom="4.9166667"
     inkscape:cx="-7.667796"
     inkscape:cy="32.400002"
     inkscape:window-x="0"
     inkscape:window-y="0"
     inkscape:window-maximized="0"
     inkscape:current-layer="svg4"
     fit-margin-top="0"
     fit-margin-left="0"
     fit-margin-right="0"
     fit-margin-bottom="0" />
  <path
     d="m 46.5097,34.9323 h 0.3576 l 0.1155,-0.3384 c 0.6846,-2.004 1.072,-4.1585 1.072,-6.3939 0,-10.9507 -8.9048,-19.8548397 -19.8742,-19.8548397 -0.1399,0 -0.296,0.01086 -0.4274,0.02 -0.0556,0.00387 -0.1068,0.00743 -0.1504,0.00972 l -0.1522,0.00801 -0.1218,0.09147 -2.7965,2.0998297 c -0.3195,0.23959 -0.5097,0.62004 -0.5097,1.01936 v 1.93548 c 0,0.70197 0.5722,1.27417 1.2742,1.27417 h 1.5484 c 0.7019,0 1.2742,-0.5722 1.2742,-1.27417 v -0.56708 l 1.2554,-1.2555 h 1.7962 c 0.3238,0 0.5935,0.26969 0.5935,0.59355 0,0.15856 -0.064,0.31178 -0.1729,0.42064 l -2.5935,2.59356 c -0.0559,0.0559 -0.1331,0.1055 -0.2349,0.142 l -3.8661,1.2855 -4e-4,10e-5 c -0.5241,0.1747 -0.8741,0.6662 -0.8741,1.2098 0,0.5076 -0.2,0.9897 -0.5503,1.34 l -1.9452,1.9452 c -0.3835,0.3835 -0.6013,0.9072 -0.6013,1.4471 v 2.4484 c 0,1.1277 0.9206,2.0483 2.0484,2.0483 h 2.1387 c 0.7784,0 1.4842,-0.4348 1.8308,-1.1273 10e-5,-2e-4 2e-4,-4e-4 3e-4,-7e-4 l 0.9074,-1.8052 c 0.0505,-0.0953 0.1502,-0.1539 0.2518,-0.1539 h 0.3 c 0.1497,0 0.2742,0.1246 0.2742,0.2742 0,0.702 0.5723,1.2742 1.2742,1.2742 H 31.5 c 0.7019,0 1.2742,-0.5722 1.2742,-1.2742 v -0.2129 c 0,-0.1204 0.0723,-0.2217 0.1904,-0.2611 l 3.0576,-1.016 0.0026,-9e-4 c 0.8316,-0.2814 1.3946,-1.0619 1.3946,-1.9445 v -0.4355 c 0,-0.5755 0.4729,-1.0484 1.0483,-1.0484 h 3.5517 c 0.3238,0 0.5935,0.2697 0.5935,0.5935 v 0.9097 c 0,0.3239 -0.2697,0.5936 -0.5935,0.5936 h -3.0968 c -0.4221,0 -0.8302,0.1682 -1.1278,0.4658 l -0.9096,0.9096 c -0.2976,0.2976 -0.4658,0.7057 -0.4658,1.1278 0,0.8761 0.7174,1.5935 1.5935,1.5935 h 1.5484 c 0.1585,0 0.3118,0.0641 0.4206,0.1729 l 0.9097,0.9097 c 0.1089,0.1089 0.1729,0.2621 0.1729,0.4207 V 27.78 l -1.0632,1.0632 c -0.6398,0.6398 -0.6398,1.6792 -0.0136,2.3194 l 6e-4,6e-4 3.0943,3.1523 c 5e-4,4e-4 9e-4,9e-4 0.0014,0.0013 0.3863,0.3985 0.913,0.6155 1.4612,0.6155 z M 28.6774,47.5064 v 0.526 l 0.5253,-0.0266 C 36.2614,47.6484 42.357,43.6175 45.5736,37.77 l 0.4076,-0.741 h -0.8457 -1.2968 c -0.3351,0 -0.6618,-0.1334 -0.8948,-0.3664 L 41.2697,34.9884 C 40.5965,34.3152 39.6859,33.9323 38.729,33.9323 h -1.5857 l -4.0401,-3.4697 -0.0012,-9e-4 c -0.8839,-0.7546 -2.0151,-1.1746 -3.1891,-1.1746 h -3.0194 c -0.8867,0 -1.7581,0.2485 -2.519,0.6987 l -0.0024,0.0014 -4.1515,2.487 c 0,0 -10e-5,10e-5 -10e-5,10e-5 -1.4766,0.8839 -2.3818,2.479 -2.3818,4.2031 v 2.3129 c 0,1.5402 0.7216,2.9953 1.9613,3.9226 2e-4,2e-4 4e-4,3e-4 6e-4,4e-4 l 2.1472,1.6153 0.0013,0.001 c 0.477,0.3563 1.125,0.663 1.7779,0.8806 0.6527,0.2176 1.3541,0.3608 1.9472,0.3608 h 1.9548 c 0.5755,0 1.0484,0.4729 1.0484,1.0484 z M 4.7000003,28.2 C 4.7000003,15.2181 15.2181,4.7000003 28.2,4.7000003 41.1819,4.7000003 51.7,15.2181 51.7,28.2 51.7,41.1819 41.1819,51.7 28.2,51.7 15.2181,51.7 4.7000003,41.1819 4.7000003,28.2 Z M 16.7561,16.7271 c -0.2976,0.2976 -0.4658,0.7057 -0.4658,1.1277 0,0.8762 0.7174,1.5936 1.5936,1.5936 h 1.5484 c 0.422,0 0.8301,-0.1682 1.1277,-0.4658 l 0.9097,-0.9097 c 0.2976,-0.2976 0.4658,-0.7057 0.4658,-1.1277 v -1.5484 c 0,-0.8762 -0.7174,-1.59357 -1.5936,-1.59357 -0.422,0 -0.8301,0.16821 -1.1277,0.46577 z"
     id="path2"
     style="fill:#ffffff;fill-opacity:0.87000002;stroke:#4d5858;filter:url(#filter4542)"
     inkscape:connector-curvature="0" />
</svg>
