<svg width="48" height="48" viewBox="0 0 48 48" fill="none" xmlns="http://www.w3.org/2000/svg">
<path d="M42.3097 30.7323H42.6673L42.7828 30.3939C43.4674 28.3899 43.8548 26.2354 43.8548 24C43.8548 13.0493 34.95 4.14516 23.9806 4.14516C23.8407 4.14516 23.6846 4.15602 23.5532 4.16516C23.4976 4.16903 23.4464 4.17259 23.4028 4.17488L23.2506 4.18289L23.1288 4.27436L20.3323 6.37419C20.0128 6.61378 19.8226 6.99423 19.8226 7.39355V9.32903C19.8226 10.031 20.3948 10.6032 21.0968 10.6032H22.6452C23.3471 10.6032 23.9194 10.031 23.9194 9.32903V8.76195L25.1748 7.50645H26.971C27.2948 7.50645 27.5645 7.77614 27.5645 8.1C27.5645 8.25856 27.5005 8.41178 27.3916 8.52064L24.7981 11.1142C24.7422 11.1701 24.665 11.2197 24.5632 11.2562L20.6971 12.5417L20.6967 12.5418C20.1726 12.7165 19.8226 13.208 19.8226 13.7516C19.8226 14.2592 19.6226 14.7413 19.2723 15.0916L17.3271 17.0368C16.9436 17.4203 16.7258 17.944 16.7258 18.4839V20.9323C16.7258 22.06 17.6464 22.9806 18.7742 22.9806H20.9129C21.6913 22.9806 22.3971 22.5458 22.7437 21.8533C22.7438 21.8531 22.7439 21.8529 22.744 21.8526L23.6514 20.0474C23.7019 19.9521 23.8016 19.8935 23.9032 19.8935H24.2032C24.3529 19.8935 24.4774 20.0181 24.4774 20.1677C24.4774 20.8697 25.0497 21.4419 25.7516 21.4419H27.3C28.0019 21.4419 28.5742 20.8697 28.5742 20.1677V19.9548C28.5742 19.8344 28.6465 19.7331 28.7646 19.6937L31.8222 18.6777L31.8248 18.6768C32.6564 18.3954 33.2194 17.6149 33.2194 16.7323V16.2968C33.2194 15.7213 33.6923 15.2484 34.2677 15.2484H37.8194C38.1432 15.2484 38.4129 15.5181 38.4129 15.8419V16.7516C38.4129 17.0755 38.1432 17.3452 37.8194 17.3452H34.7226C34.3005 17.3452 33.8924 17.5134 33.5948 17.811L32.6852 18.7206C32.3876 19.0182 32.2194 19.4263 32.2194 19.8484C32.2194 20.7245 32.9368 21.4419 33.8129 21.4419H35.3613C35.5198 21.4419 35.6731 21.506 35.7819 21.6148L36.6916 22.5245C36.8005 22.6334 36.8645 22.7866 36.8645 22.9452V23.58L35.8013 24.6432C35.1615 25.283 35.1615 26.3224 35.7877 26.9626L35.7883 26.9632L38.8826 30.1155C38.8831 30.1159 38.8835 30.1164 38.884 30.1168C39.2703 30.5153 39.797 30.7323 40.3452 30.7323H42.3097ZM24.4774 43.3064V43.8324L25.0027 43.8058C32.0614 43.4484 38.157 39.4175 41.3736 33.57L41.7812 32.829H40.9355H39.6387C39.3036 32.829 38.9769 32.6956 38.7439 32.4626L37.0697 30.7884C36.3965 30.1152 35.4859 29.7323 34.529 29.7323H32.9433L28.9032 26.2626L28.902 26.2617C28.0181 25.5071 26.8869 25.0871 25.7129 25.0871H22.6935C21.8068 25.0871 20.9354 25.3356 20.1745 25.7858L20.1721 25.7872L16.0206 28.2742C16.0206 28.2742 16.0205 28.2743 16.0205 28.2743C14.5439 29.1582 13.6387 30.7533 13.6387 32.4774V34.7903C13.6387 36.3305 14.3603 37.7856 15.6 38.7129C15.6002 38.7131 15.6004 38.7132 15.6006 38.7133L17.7478 40.3286L17.7491 40.3296C18.2261 40.6859 18.8741 40.9926 19.527 41.2102C20.1797 41.4278 20.8811 41.571 21.4742 41.571H23.429C24.0045 41.571 24.4774 42.0439 24.4774 42.6194V43.3064ZM0.5 24C0.5 11.0181 11.0181 0.5 24 0.5C36.9819 0.5 47.5 11.0181 47.5 24C47.5 36.9819 36.9819 47.5 24 47.5C11.0181 47.5 0.5 36.9819 0.5 24ZM12.5561 12.5271C12.2585 12.8247 12.0903 13.2328 12.0903 13.6548C12.0903 14.531 12.8077 15.2484 13.6839 15.2484H15.2323C15.6543 15.2484 16.0624 15.0802 16.36 14.7826L17.2697 13.8729C17.5673 13.5753 17.7355 13.1672 17.7355 12.7452V11.1968C17.7355 10.3206 17.0181 9.60323 16.1419 9.60323C15.7199 9.60323 15.3118 9.77144 15.0142 10.069L12.5561 12.5271Z" fill="white" fill-opacity="0.87" stroke="#4D5858"/>
</svg>
